<?xml version="1.0" encoding="UTF-8"?>
<svg id="Layer_2" data-name="Layer 2" xmlns="http://www.w3.org/2000/svg" viewBox="0 0 1197.65 693.47">
  <g id="Layer_1-2" data-name="Layer 1">
    <g>
      <g>
        <path d="M43.15,0c1.07,.41,2.71,.9,4.91,1.44,2.2,.55,4.67,1,7.41,1.34,2.74,.34,5.3,.52,7.68,.52l-20,2.06V0Zm98.04,3.3v6.19H43.15V3.3h98.04ZM54.05,9.07v.41c-2.74,.14-4.91,1.2-6.52,3.19-1.61,1.99-2.41,4.43-2.41,7.32v3.3h-1.96V9.07h10.89Zm32.68,104.93v13.19h-13.04v-2.06h2.14c2.86,0,5.3-1.1,7.32-3.3,2.02-2.2,3.09-4.81,3.21-7.83h.36ZM97.98,4.12V127.2h-11.61V4.12h11.61Zm-.54,109.88h.54c.12,3.02,1.19,5.64,3.21,7.83,2.02,2.2,4.46,3.3,7.32,3.3h1.96v2.06h-13.04v-13.19ZM141.2,0V5.36l-20-2.06c2.38,0,4.91-.17,7.59-.52,2.68-.34,5.15-.79,7.41-1.34,2.26-.55,3.93-1.03,5-1.44Zm0,9.07v14.22h-1.96v-3.3c0-2.89-.8-5.32-2.41-7.32-1.61-1.99-3.78-3.06-6.52-3.19v-.41h10.89Z"/>
        <path d="M166.55,16.7h-.54c-.12-3.16-1.16-5.8-3.13-7.94-1.96-2.13-4.38-3.19-7.23-3.19h-2.14V3.5h13.04v13.19Zm0,97.31v13.19h-13.04v-2.06h2.14c2.86,0,5.27-1.1,7.23-3.3,1.96-2.2,3.01-4.81,3.13-7.83h.54ZM177.45,3.5V127.2h-11.43V3.5h11.43Zm67.68,59.58v6.19h-69.65v-6.19h69.65ZM176.91,16.7V3.5h13.04v2.06h-2.14c-2.86,0-5.3,1.07-7.32,3.19-2.03,2.13-3.04,4.78-3.04,7.94h-.54Zm0,97.31h.54c0,3.02,1.01,5.64,3.04,7.83,2.02,2.2,4.46,3.3,7.32,3.3h2.14v2.06h-13.04v-13.19ZM243.88,16.7h-.54c-.12-3.16-1.16-5.8-3.13-7.94-1.96-2.13-4.38-3.19-7.23-3.19h-2.14V3.5h13.04v13.19Zm0,97.31v13.19h-13.04v-2.06h2.14c2.86,0,5.27-1.1,7.23-3.3,1.96-2.2,3.01-4.81,3.13-7.83h.54ZM254.78,3.5V127.2h-11.43V3.5h11.43Zm-.54,13.19V3.5h13.04v2.06h-2.14c-2.86,0-5.27,1.07-7.23,3.19-1.96,2.13-3.01,4.78-3.13,7.94h-.54Zm0,97.31h.54c.12,3.02,1.16,5.64,3.13,7.83,1.96,2.2,4.38,3.3,7.23,3.3h2.14v2.06h-13.04v-13.19Z"/>
        <path d="M299.96,16.49h-.36c-.12-3.16-1.13-5.77-3.04-7.83-1.91-2.06-4.35-3.09-7.32-3.09h-2.5V3.5h15.54l-2.32,12.99Zm0,97.51l2.32,13.19h-15.54v-2.06h2.5c2.97,0,5.42-1.1,7.32-3.3,1.9-2.2,2.92-4.81,3.04-7.83h.36ZM311.03,3.5V127.2h-11.43V3.5h11.43Zm47.86,0v6.39h-48.22V3.5h48.22Zm-8.22,58.75v6.18h-40v-6.18h40Zm8.39,58.55l-.36,6.39h-48.04v-6.39h48.4Zm10-23.09l-9.82,29.48h-27.14l6.07-6.39c5.95,0,10.74-1,14.38-2.99,3.63-1.99,6.58-4.74,8.84-8.25,2.26-3.5,4.22-7.45,5.89-11.85h1.79ZM358.89,.21V5.57l-20.36-2.06c3.69,0,7.62-.38,11.79-1.13,4.17-.75,7.02-1.47,8.57-2.16Zm-8.22,50.71v11.75h-9.29v-.41c2.5,0,4.34-.86,5.54-2.58,1.19-1.72,1.79-3.74,1.79-6.08v-2.68h1.96Zm0,17.11v11.75h-1.96v-2.68c0-2.34-.6-4.36-1.79-6.08-1.19-1.72-3.04-2.58-5.54-2.58v-.41h9.29Zm8.22-58.75v14.22h-1.96v-3.09c0-2.89-.8-5.36-2.41-7.42-1.61-2.06-3.78-3.09-6.52-3.09v-.62h10.89Z"/>
        <path d="M460.86,.62c3.33,0,6.25,.14,8.75,.41,2.5,.28,4.67,.59,6.52,.93,1.85,.35,3.45,.76,4.82,1.24,1.37,.48,2.59,.93,3.66,1.34l.18,20.41h-2.14c0-5.64-1.67-10.07-5-13.3-3.34-3.23-8.51-4.85-15.54-4.85-5.95,0-11.04,1.89-15.27,5.67-4.23,3.78-6.28,8.42-6.16,13.92,0,1.79,.21,3.61,.62,5.46,.42,1.86,1.13,3.68,2.14,5.46,1.01,1.79,2.41,3.58,4.2,5.36l36.07,32.16c2.74,2.61,4.76,5.95,6.07,10,1.31,4.05,2.02,8.08,2.14,12.06,.12,6.05-1.25,11.61-4.11,16.7-2.86,5.09-6.7,9.11-11.52,12.06-4.82,2.95-10.15,4.43-15.98,4.43-3.45,0-7.18-.34-11.16-1.03-3.99-.69-7.71-1.75-11.16-3.2-3.45-1.44-6.31-3.26-8.57-5.46-.36-1.92-.54-4.36-.54-7.32s.21-6.08,.62-9.38c.42-3.3,.98-6.25,1.7-8.86h2.14c-.48,6.18,.3,11.48,2.32,15.87,2.02,4.4,5,7.73,8.93,10,3.93,2.27,8.51,3.33,13.75,3.2,7.38-.27,13.18-2.44,17.41-6.49,4.22-4.05,6.34-9.45,6.34-16.18,0-3.3-.51-6.29-1.52-8.97-1.01-2.68-2.65-5.19-4.91-7.52l-35.72-31.75c-3.33-3.3-5.6-6.94-6.79-10.93-1.19-3.98-1.79-7.76-1.79-11.34,0-5.63,1.31-10.72,3.93-15.26,2.62-4.53,6.16-8.14,10.63-10.82,4.46-2.68,9.43-4.02,14.91-4.02Zm23.57,1.86l.18,3.71h-12.68V2.47h12.5Z"/>
        <path d="M527.12,112.15c-1.31,4.12-1.13,7.32,.53,9.59,1.67,2.27,3.57,3.4,5.71,3.4h1.43v2.06h-34.11v-2.06h1.43c2.5,0,5.06-.99,7.68-2.99,2.62-1.99,4.88-5.32,6.79-10h10.54ZM561.58,.62l1.25,14.22-40.9,111.74h-11.25l42.32-104.73c1.31-3.3,2.41-6.15,3.3-8.55,.89-2.4,1.7-4.77,2.41-7.11,.72-2.34,1.13-4.19,1.25-5.56h1.61Zm21.07,78.54v6.18h-47.33v-6.18h47.33ZM561.58,.62l49.11,125.34h-14.11l-38.04-106.99,3.04-18.35Zm30.18,111.53h13.57c1.79,4.67,3.99,8.01,6.61,10,2.62,1.99,5.12,2.99,7.5,2.99h1.43v2.06h-36.61v-2.06h1.43c2.02,0,3.87-1.13,5.54-3.4,1.67-2.27,1.84-5.46,.53-9.59Z"/>
        <path d="M639.98,113.39v13.81h-18.57v-2.06h2.68c3.09,0,5.8-1.03,8.13-3.09,2.32-2.06,3.66-4.95,4.02-8.66h3.75ZM650.16,.62h1.79l3.57,12.16-11.07,114.42h-9.82L650.16,.62Zm-4.82,115.86c-.12,2.06,.3,4.02,1.25,5.88,.95,1.86,2.74,2.85,5.36,2.99h2.5v1.86h-10.18v-10.72h1.07ZM651.95,.62l48.58,107.82-4.11,21.65-47.86-106.79,3.39-22.68Zm92.69,0l1.61,13.4-41.79,95.04c-1.79,4.67-3.16,8.63-4.11,11.85-.95,3.23-1.67,6.29-2.14,9.17h-1.79l-2.5-12.99L744.63,.62Zm1.61,0l16.07,126.58h-13.57l-11.61-103.7,7.5-22.88h1.61Zm1.25,115.86h1.25v10.72h-10.36v-1.86h2.68c2.74-.14,4.55-1.17,5.45-3.09,.89-1.92,1.22-3.85,.98-5.77Zm9.47-3.09h3.57c.48,3.71,1.9,6.6,4.29,8.66,2.38,2.06,5.06,3.09,8.04,3.09h2.68v2.06h-18.57v-13.81Z"/>
        <path d="M799.81,16.49h-.36c-.12-3.16-1.13-5.77-3.04-7.83-1.91-2.06-4.35-3.09-7.32-3.09h-2.5V3.5h15.54l-2.32,12.99Zm0,97.51l2.32,13.19h-15.54v-2.06h2.5c2.97,0,5.42-1.1,7.32-3.3,1.9-2.2,2.92-4.81,3.04-7.83h.36Zm11.07-110.5V127.2h-11.43V3.5h11.43Zm47.86,0v6.39h-48.22V3.5h48.22Zm-8.21,58.75v6.18h-40v-6.18h40Zm8.39,58.55l-.36,6.39h-48.04v-6.39h48.4Zm10-23.09l-9.82,29.48h-27.15l6.07-6.39c5.95,0,10.74-1,14.38-2.99,3.63-1.99,6.58-4.74,8.84-8.25,2.26-3.5,4.22-7.45,5.89-11.85h1.78ZM858.75,.21V5.57l-20.36-2.06c3.69,0,7.62-.38,11.79-1.13,4.17-.75,7.02-1.47,8.57-2.16Zm-8.21,50.71v11.75h-9.29v-.41c2.5,0,4.34-.86,5.54-2.58,1.19-1.72,1.79-3.74,1.79-6.08v-2.68h1.96Zm0,17.11v11.75h-1.96v-2.68c0-2.34-.6-4.36-1.79-6.08-1.19-1.72-3.04-2.58-5.54-2.58v-.41h9.29Zm8.21-58.75v14.22h-1.96v-3.09c0-2.89-.8-5.36-2.41-7.42-1.61-2.06-3.78-3.09-6.52-3.09v-.62h10.89Z"/>
      </g>
      <path d="M10.81,197.92h-.43c-.1-2.66-.94-4.82-2.52-6.49-1.59-1.66-3.63-2.5-6.13-2.5H0v-1.66H10.81v10.65Zm0,78.54v10.65H0v-1.66H1.73c2.5,0,4.54-.89,6.13-2.66,1.59-1.77,2.43-3.88,2.52-6.32h.43Zm8.65-89.19v99.84H10.38v-99.84h9.08Zm9.95,0c2.59,0,5.6,.28,9.01,.83,3.41,.56,6.7,1.66,9.87,3.33,3.17,1.66,5.81,4.16,7.93,7.49,2.11,3.33,3.17,7.77,3.17,13.31,0,3.33-.77,6.43-2.31,9.32-1.54,2.89-3.51,5.3-5.91,7.24-2.4,1.94-4.95,3.3-7.64,4.08,4.71,.56,8.87,2.08,12.47,4.58,3.6,2.5,6.46,5.63,8.58,9.4,2.11,3.77,3.17,7.88,3.17,12.31,0,5.44-.99,9.96-2.95,13.56-1.97,3.61-4.54,6.46-7.71,8.57-3.17,2.11-6.63,3.61-10.38,4.49-3.75,.89-7.4,1.33-10.96,1.33H18.16c.09-1.66,.14-3.33,.14-4.99h17.3c4.13,0,7.86-.8,11.17-2.41,3.32-1.61,5.93-4.13,7.86-7.57,1.92-3.44,2.88-7.76,2.88-12.98s-1.01-9.62-3.03-12.9c-2.02-3.27-4.66-5.77-7.93-7.49-3.27-1.72-6.87-2.88-10.81-3.49-3.94-.61-7.88-.92-11.82-.92v-1.66c2.59,0,5.38-.22,8.36-.66,2.98-.44,5.74-1.36,8.29-2.75,2.54-1.39,4.64-3.44,6.27-6.16,1.63-2.72,2.45-6.35,2.45-10.9,0-6.99-1.78-12.06-5.33-15.23-3.56-3.16-8.46-4.74-14.7-4.74H13.55c0-.11-.12-.58-.36-1.41-.24-.83-.55-2.02-.94-3.58H29.41Z"/>
      <path d="M92.83,197.75h-.29c-.1-2.55-.91-4.66-2.45-6.32-1.54-1.66-3.51-2.5-5.91-2.5h-2.02v-1.66h12.54l-1.87,10.48Zm0,78.71l1.87,10.65h-12.54v-1.66h2.02c2.4,0,4.37-.89,5.91-2.66,1.54-1.77,2.35-3.88,2.45-6.32h.29Zm8.94-89.19v99.84h-9.22v-99.84h9.22Zm38.63,0v5.16h-38.92v-5.16h38.92Zm-6.63,47.42v4.99h-32.29v-4.99h32.29Zm6.77,47.26l-.29,5.16h-38.77v-5.16h39.06Zm8.07-18.64l-7.93,23.79h-21.91l4.9-5.16c4.8,0,8.67-.8,11.6-2.41,2.93-1.61,5.31-3.83,7.14-6.66,1.82-2.83,3.41-6.02,4.76-9.57h1.44Zm-8.22-78.71v4.33l-16.43-1.66c2.98,0,6.15-.3,9.51-.92,3.36-.61,5.67-1.19,6.92-1.75Zm-6.63,40.93v9.49h-7.5v-.33c2.02,0,3.51-.69,4.47-2.08,.96-1.39,1.44-3.02,1.44-4.91v-2.16h1.59Zm0,13.81v9.49h-1.59v-2.16c0-1.88-.48-3.52-1.44-4.91-.96-1.39-2.45-2.08-4.47-2.08v-.33h7.5Zm6.63-47.42v11.48h-1.59v-2.5c0-2.33-.65-4.33-1.95-5.99-1.3-1.66-3.05-2.5-5.26-2.5v-.5h8.79Z"/>
      <path d="M207.42,184.94c4.42,0,8.58,.36,12.47,1.08,3.89,.72,7.59,1.83,11.1,3.33,3.51,1.5,6.85,3.41,10.02,5.74l3.17,23.46h-1.3c-1.35-6.54-3.53-11.92-6.56-16.14-3.03-4.21-6.94-7.35-11.75-9.4-4.81-2.05-10.57-3.08-17.3-3.08-7.3,0-13.72,1.91-19.24,5.74-5.53,3.83-9.83,9.26-12.9,16.31-3.08,7.05-4.61,15.45-4.61,25.21s1.54,18.03,4.61,25.13c3.07,7.1,7.4,12.56,12.97,16.39,5.57,3.83,12.01,5.74,19.32,5.74,4.04,0,7.88-.5,11.53-1.5,3.65-1,7.18-2.58,10.59-4.74,3.41-2.16,6.61-4.91,9.59-8.24l.14-22.13c.1-2.11-.46-3.71-1.66-4.82-1.2-1.11-2.86-1.66-4.97-1.66h-2.02v-1.66h26.38v1.66h-2.02c-4.32,0-6.49,2.22-6.49,6.66v19.97c-2.21,3.22-5.24,6.49-9.08,9.82-3.84,3.33-8.43,6.1-13.77,8.32-5.33,2.22-11.41,3.33-18.23,3.33-9.51-.11-17.8-2.27-24.86-6.49-7.06-4.21-12.57-10.2-16.5-17.97-3.94-7.76-5.91-17.03-5.91-27.79s1.97-20.19,5.91-27.95c3.94-7.76,9.46-13.75,16.58-17.97,7.11-4.21,15.37-6.32,24.79-6.32Z"/>
      <path d="M277.91,197.92h-.43c-.1-2.55-1.08-4.69-2.95-6.41-1.87-1.72-4.16-2.58-6.85-2.58h-2.02v-1.66h12.25v10.65Zm0,78.54v10.65h-12.25v-1.66h2.02c2.69,0,4.97-.89,6.85-2.66,1.87-1.77,2.86-3.88,2.95-6.32h.43Zm8.65-89.19v99.84h-9.08v-99.84h9.08Zm-.43,10.65v-10.65h12.25l-.14,1.66h-1.87c-2.69,0-4.97,.86-6.85,2.58-1.87,1.72-2.86,3.86-2.95,6.41h-.43Zm0,78.54h.43c.09,2.44,1.08,4.55,2.95,6.32,1.87,1.78,4.16,2.66,6.85,2.66h1.87l.14,1.66h-12.25v-10.65Z"/>
      <path d="M322.02,276.79v10.32h-10.81v-1.66h2.45c2.21,0,4.08-.83,5.62-2.5,1.54-1.66,2.31-3.72,2.31-6.16h.43Zm-.29-92.02l6.2,9.32,.14,93.02h-6.49v-81.53c0-5.66-.43-12.59-1.3-20.8h1.44Zm0,0l79.86,86.86,1.44,17.8-79.86-87.36-1.44-17.3Zm6.34,92.02c0,2.44,.79,4.49,2.38,6.16,1.59,1.66,3.43,2.5,5.55,2.5h2.45v1.66h-10.81v-10.32h.43Zm68.61-79.2c-.1-2.44-.91-4.49-2.45-6.16-1.54-1.66-3.41-2.5-5.62-2.5h-2.45v-1.66h10.81v10.32h-.29Zm6.34-10.32v80.87c0,3.55,.09,6.96,.29,10.23,.19,3.27,.53,6.96,1.01,11.06h-1.3l-6.34-8.82v-93.35h6.34Zm-.43,10.32v-10.32h10.81v1.66h-2.45c-2.12,0-3.96,.83-5.55,2.5-1.59,1.66-2.38,3.72-2.38,6.16h-.43Z"/>
      <path d="M432.86,276.79v10.32h-10.81v-1.66h2.45c2.21,0,4.08-.83,5.62-2.5,1.54-1.66,2.31-3.72,2.31-6.16h.43Zm-.29-92.02l6.2,9.32,.14,93.02h-6.49v-81.53c0-5.66-.43-12.59-1.3-20.8h1.44Zm0,0l79.86,86.86,1.44,17.8-79.86-87.36-1.44-17.3Zm6.34,92.02c0,2.44,.79,4.49,2.38,6.16,1.59,1.66,3.43,2.5,5.55,2.5h2.45v1.66h-10.81v-10.32h.43Zm68.61-79.2c-.1-2.44-.91-4.49-2.45-6.16-1.54-1.66-3.41-2.5-5.62-2.5h-2.45v-1.66h10.81v10.32h-.29Zm6.34-10.32v80.87c0,3.55,.09,6.96,.29,10.23,.19,3.27,.53,6.96,1.01,11.06h-1.3l-6.34-8.82v-93.35h6.34Zm-.43,10.32v-10.32h10.81v1.66h-2.45c-2.12,0-3.96,.83-5.55,2.5-1.59,1.66-2.38,3.72-2.38,6.16h-.43Z"/>
      <path d="M549.47,197.92h-.43c-.1-2.55-1.08-4.69-2.95-6.41-1.87-1.72-4.16-2.58-6.85-2.58h-2.02v-1.66h12.25v10.65Zm0,78.54v10.65h-12.25v-1.66h2.02c2.69,0,4.97-.89,6.85-2.66,1.87-1.77,2.86-3.88,2.95-6.32h.43Zm8.65-89.19v99.84h-9.08v-99.84h9.08Zm-.43,10.65v-10.65h12.25l-.14,1.66h-1.87c-2.69,0-4.97,.86-6.85,2.58-1.87,1.72-2.86,3.86-2.95,6.41h-.43Zm0,78.54h.43c.09,2.44,1.08,4.55,2.95,6.32,1.87,1.78,4.16,2.66,6.85,2.66h1.87l.14,1.66h-12.25v-10.65Z"/>
      <path d="M593.58,276.79v10.32h-10.81v-1.66h2.45c2.21,0,4.08-.83,5.62-2.5,1.54-1.66,2.31-3.72,2.31-6.16h.43Zm-.29-92.02l6.2,9.32,.14,93.02h-6.49v-81.53c0-5.66-.43-12.59-1.3-20.8h1.44Zm0,0l79.86,86.86,1.44,17.8-79.86-87.36-1.44-17.3Zm6.34,92.02c0,2.44,.79,4.49,2.38,6.16,1.59,1.66,3.43,2.5,5.55,2.5h2.45v1.66h-10.81v-10.32h.43Zm68.61-79.2c-.1-2.44-.91-4.49-2.45-6.16-1.54-1.66-3.41-2.5-5.62-2.5h-2.45v-1.66h10.81v10.32h-.29Zm6.34-10.32v80.87c0,3.55,.09,6.96,.29,10.23,.19,3.27,.53,6.96,1.01,11.06h-1.3l-6.34-8.82v-93.35h6.34Zm-.43,10.32v-10.32h10.81v1.66h-2.45c-2.12,0-3.96,.83-5.55,2.5-1.59,1.66-2.38,3.72-2.38,6.16h-.43Z"/>
      <path d="M743.78,184.94c4.42,0,8.58,.36,12.47,1.08,3.89,.72,7.59,1.83,11.1,3.33,3.51,1.5,6.85,3.41,10.02,5.74l3.17,23.46h-1.3c-1.35-6.54-3.53-11.92-6.56-16.14-3.03-4.21-6.94-7.35-11.75-9.4-4.81-2.05-10.57-3.08-17.3-3.08-7.3,0-13.72,1.91-19.24,5.74-5.53,3.83-9.83,9.26-12.9,16.31-3.08,7.05-4.61,15.45-4.61,25.21s1.54,18.03,4.61,25.13c3.07,7.1,7.4,12.56,12.97,16.39,5.57,3.83,12.01,5.74,19.32,5.74,4.04,0,7.88-.5,11.53-1.5,3.65-1,7.18-2.58,10.6-4.74,3.41-2.16,6.61-4.91,9.59-8.24l.14-22.13c.1-2.11-.46-3.71-1.66-4.82-1.2-1.11-2.86-1.66-4.97-1.66h-2.02v-1.66h26.38v1.66h-2.02c-4.32,0-6.49,2.22-6.49,6.66v19.97c-2.21,3.22-5.24,6.49-9.08,9.82-3.84,3.33-8.43,6.1-13.77,8.32-5.33,2.22-11.41,3.33-18.23,3.33-9.51-.11-17.8-2.27-24.87-6.49-7.06-4.21-12.57-10.2-16.5-17.97-3.94-7.76-5.91-17.03-5.91-27.79s1.97-20.19,5.91-27.95c3.94-7.76,9.46-13.75,16.58-17.97,7.11-4.21,15.37-6.32,24.79-6.32Z"/>
      <path d="M552.75,423.99c-1.06,3.33-.91,5.91,.43,7.74,1.34,1.83,2.88,2.74,4.61,2.74h1.15v1.66h-27.53v-1.66h1.15c2.02,0,4.08-.8,6.2-2.41,2.11-1.61,3.94-4.3,5.48-8.07h8.5Zm27.82-90.02l1.01,11.48-33.01,90.19h-9.08l34.16-84.53c1.06-2.66,1.95-4.96,2.67-6.9,.72-1.94,1.37-3.85,1.95-5.74,.58-1.88,.91-3.38,1.01-4.49h1.3Zm17.01,63.4v4.99h-38.2v-4.99h38.2Zm-17.01-63.4l39.64,101.17h-11.39l-30.7-86.36,2.45-14.81Zm24.36,90.02h10.96c1.44,3.77,3.22,6.46,5.33,8.07,2.11,1.61,4.13,2.41,6.05,2.41h1.15v1.66h-29.55v-1.66h1.15c1.63,0,3.12-.92,4.47-2.74,1.34-1.83,1.49-4.41,.43-7.74Z"/>
      <path d="M643.56,425.82v10.32h-10.81v-1.66h2.45c2.21,0,4.08-.83,5.62-2.5,1.54-1.66,2.31-3.72,2.31-6.16h.43Zm-.29-92.02l6.2,9.32,.14,93.02h-6.49v-81.53c0-5.66-.43-12.59-1.3-20.8h1.44Zm0,0l79.86,86.86,1.44,17.8-79.86-87.36-1.44-17.3Zm6.34,92.02c0,2.44,.79,4.49,2.38,6.16,1.59,1.66,3.43,2.5,5.55,2.5h2.45v1.66h-10.81v-10.32h.43Zm68.61-79.2c-.1-2.44-.91-4.49-2.45-6.16-1.54-1.66-3.41-2.5-5.62-2.5h-2.45v-1.66h10.81v10.32h-.29Zm6.34-10.32v80.87c0,3.55,.1,6.96,.29,10.23,.19,3.27,.53,6.96,1.01,11.06h-1.3l-6.34-8.82v-93.35h6.34Zm-.43,10.32v-10.32h10.81v1.66h-2.45c-2.12,0-3.96,.83-5.55,2.5-1.59,1.66-2.38,3.72-2.38,6.16h-.43Z"/>
      <path d="M758.3,347.12h-.29c-.1-2.66-.94-4.85-2.52-6.57-1.59-1.72-3.53-2.58-5.84-2.58h-1.73v-1.66h10.38v10.82Zm0,78.21v10.82h-10.38v-1.66h1.87c2.31,0,4.23-.92,5.77-2.74,1.54-1.83,2.35-3.96,2.45-6.41h.29Zm9.08-89.02v99.84h-9.37v-99.84h9.37Zm28.69,0c9.51,0,17.73,2,24.65,5.99,6.92,3.99,12.25,9.73,16,17.22,3.75,7.49,5.62,16.39,5.62,26.71s-1.87,19.19-5.62,26.62c-3.75,7.43-9.08,13.17-16,17.22-6.92,4.05-15.13,6.07-24.65,6.07h-30.7l-.29-4.99h30.99c11.15,0,19.91-4.02,26.31-12.06,6.39-8.04,9.59-19,9.59-32.86s-3.2-24.82-9.59-32.86c-6.39-8.04-15.16-12.06-26.31-12.06h-32.43v-4.99h32.43Z"/>
      <path d="M904.17,346.78h-.29c-.1-2.55-.91-4.66-2.45-6.32-1.54-1.66-3.51-2.5-5.91-2.5h-2.02v-1.66h12.54l-1.87,10.48Zm0,78.71l1.87,10.65h-12.54v-1.66h2.02c2.4,0,4.37-.89,5.91-2.66s2.35-3.88,2.45-6.32h.29Zm8.94-89.19v99.84h-9.22v-99.84h9.22Zm38.63,0v5.16h-38.92v-5.16h38.92Zm-6.63,47.42v4.99h-32.29v-4.99h32.29Zm6.77,47.26l-.29,5.16h-38.77v-5.16h39.06Zm8.07-18.64l-7.93,23.79h-21.91l4.9-5.16c4.8,0,8.67-.8,11.6-2.41,2.93-1.61,5.31-3.83,7.13-6.66,1.83-2.83,3.41-6.02,4.76-9.57h1.44Zm-8.22-78.71v4.33l-16.43-1.66c2.98,0,6.15-.3,9.51-.92,3.36-.61,5.67-1.19,6.92-1.75Zm-6.63,40.93v9.49h-7.5v-.33c2.02,0,3.51-.69,4.47-2.08,.96-1.39,1.44-3.02,1.44-4.91v-2.16h1.59Zm0,13.81v9.49h-1.59v-2.16c0-1.88-.48-3.52-1.44-4.91-.96-1.39-2.45-2.08-4.47-2.08v-.33h7.5Zm6.63-47.42v11.48h-1.59v-2.5c0-2.33-.65-4.33-1.94-5.99-1.3-1.66-3.05-2.5-5.26-2.5v-.5h8.79Z"/>
      <path d="M980.14,425.82v10.32h-10.81v-1.66h2.45c2.21,0,4.08-.83,5.62-2.5,1.54-1.66,2.31-3.72,2.31-6.16h.43Zm-.29-92.02l6.2,9.32,.14,93.02h-6.49v-81.53c0-5.66-.43-12.59-1.3-20.8h1.44Zm0,0l79.86,86.86,1.44,17.8-79.86-87.36-1.44-17.3Zm6.34,92.02c0,2.44,.79,4.49,2.38,6.16,1.59,1.66,3.43,2.5,5.55,2.5h2.45v1.66h-10.81v-10.32h.43Zm68.61-79.2c-.1-2.44-.91-4.49-2.45-6.16-1.54-1.66-3.41-2.5-5.62-2.5h-2.45v-1.66h10.81v10.32h-.29Zm6.34-10.32v80.87c0,3.55,.1,6.96,.29,10.23,.19,3.27,.53,6.96,1.01,11.06h-1.3l-6.34-8.82v-93.35h6.34Zm-.43,10.32v-10.32h10.81v1.66h-2.45c-2.12,0-3.96,.83-5.55,2.5-1.59,1.66-2.38,3.72-2.38,6.16h-.43Z"/>
      <path d="M1094.87,347.12h-.29c-.1-2.66-.94-4.85-2.52-6.57-1.59-1.72-3.53-2.58-5.84-2.58h-1.73v-1.66h10.38v10.82Zm0,78.21v10.82h-10.38v-1.66h1.87c2.31,0,4.23-.92,5.77-2.74,1.54-1.83,2.35-3.96,2.45-6.41h.29Zm9.08-89.02v99.84h-9.37v-99.84h9.37Zm28.68,0c9.51,0,17.73,2,24.65,5.99,6.92,3.99,12.25,9.73,16,17.22,3.75,7.49,5.62,16.39,5.62,26.71s-1.87,19.19-5.62,26.62c-3.75,7.43-9.08,13.17-16,17.22-6.92,4.05-15.14,6.07-24.65,6.07h-30.7l-.29-4.99h30.99c11.15,0,19.91-4.02,26.31-12.06,6.39-8.04,9.59-19,9.59-32.86s-3.2-24.82-9.59-32.86c-6.39-8.04-15.16-12.06-26.31-12.06h-32.43v-4.99h32.43Z"/>
      <path d="M1191.16,436.81c-1.83,0-3.36-.72-4.61-2.16-1.25-1.44-1.87-3.22-1.87-5.32s.62-3.88,1.87-5.32c1.25-1.44,2.79-2.16,4.61-2.16s3.36,.72,4.61,2.16c1.25,1.44,1.87,3.22,1.87,5.32s-.63,3.88-1.87,5.32c-1.25,1.44-2.79,2.16-4.61,2.16Z"/>
    </g>
  </g>
</svg>