<?xml version="1.0" encoding="UTF-8"?>
<svg id="Layer_2" data-name="Layer 2" xmlns="http://www.w3.org/2000/svg" viewBox="0 0 588.4 374.13">
  <defs>
    <style>
      .cls-1 {
        fill: #b1c0a0;
      }
    </style>
  </defs>
  <g id="Layer_1-2" data-name="Layer 1">
    <g>
      <path class="cls-1" d="M0,0C.67,.27,1.68,.54,3.05,.8c1.37,.27,2.88,.5,4.55,.7,1.67,.2,3.2,.3,4.6,.3L0,2.9V0ZM67.9,1.8V6.8H0V1.8H67.9ZM13.9,6.5v.3c-4.07,.07-7.23,1.25-9.5,3.55-2.27,2.3-3.4,5.45-3.4,9.45v.7l-1,.1V6.5H13.9Zm10.1,58.1v7.3h-8v-1h1.3c1.73,0,3.22-.62,4.45-1.85,1.23-1.23,1.88-2.72,1.95-4.45h.3ZM44.2,2.2V71.9H23.7V2.2h20.5Zm-.3,62.4h.3c.07,1.73,.72,3.22,1.95,4.45,1.23,1.23,2.72,1.85,4.45,1.85h1.3v1h-8v-7.3ZM67.9,6.5v14.1l-1-.1v-.7c0-4-1.13-7.15-3.4-9.45-2.27-2.3-5.43-3.48-9.5-3.55v-.3h13.9Zm0-6.5V2.9l-12.2-1.1c1.47,0,3.02-.1,4.65-.3,1.63-.2,3.15-.43,4.55-.7,1.4-.27,2.4-.53,3-.8Z"/>
      <path class="cls-1" d="M77.5,18.1h-.3c0-1.53-.52-2.78-1.55-3.75-1.03-.97-2.25-1.45-3.65-1.45h-1.1v-1h6.6v6.2Zm0,47.6v6.2h-6.6v-1h1.1c1.4,0,2.62-.5,3.65-1.5,1.03-1,1.55-2.23,1.55-3.7h.3ZM96.8,11.9v60h-19.6V11.9h19.6Zm20.2,27.6v4.6h-21v-4.6h21Zm-20.4-21.4v-6.2h6.5v1h-1c-1.47,0-2.7,.48-3.7,1.45-1,.97-1.53,2.22-1.6,3.75h-.2Zm0,47.6h.2c.07,1.47,.6,2.7,1.6,3.7s2.23,1.5,3.7,1.5h1v1h-6.5v-6.2Zm19.9-47.6h-.2c-.07-1.53-.6-2.78-1.6-3.75-1-.97-2.23-1.45-3.7-1.45h-1v-1h6.5v6.2Zm0,47.6v6.2h-6.5v-1h1c1.47,0,2.7-.5,3.7-1.5s1.53-2.23,1.6-3.7h.2Zm19.3-53.8v60h-19.5V11.9h19.5Zm-.3,53.8h.3c0,1.47,.5,2.7,1.5,3.7s2.23,1.5,3.7,1.5h1.1v1h-6.6v-6.2Zm.1-47.6v-6.2h6.6v1h-1.1c-1.47,0-2.7,.48-3.7,1.45-1,.97-1.5,2.22-1.5,3.75h-.3Z"/>
      <path class="cls-1" d="M156.5,65.8c-.73,1.67-.63,2.93,.3,3.8,.93,.87,1.97,1.3,3.1,1.3h.7v1h-20.6v-1h.8c1.33,0,2.73-.38,4.2-1.15,1.47-.77,2.63-2.08,3.5-3.95h8Zm18.5-57.5l-.1,15.3-21,48h-8.1l23.2-50c.27-.67,.67-1.58,1.2-2.75,.53-1.17,1.08-2.43,1.65-3.8,.57-1.37,1.08-2.65,1.55-3.85,.47-1.2,.73-2.17,.8-2.9h.8Zm6.7,46.4v4.5h-24.9v-4.5h24.9Zm-6.7-46.4l31,63.1h-22.7l-16.9-38.6,8.6-24.5Zm5.8,57.5h22.4c.93,1.87,2.13,3.18,3.6,3.95,1.47,.77,2.87,1.15,4.2,1.15h.8v1h-35.2v-1h.8c1.13,0,2.17-.43,3.1-1.3,.93-.87,1.03-2.13,.3-3.8Z"/>
      <path class="cls-1" d="M216,65.9v6h-7.4v-1h1.6c1.53,0,2.83-.47,3.9-1.4,1.07-.93,1.6-2.13,1.6-3.6h.3Zm-.6-55.3l19.9,21.1v40.2h-19.6V21.2c0-3.4-.4-6.93-1.2-10.6h.9Zm0,0l60.8,51.2,1.1,11.3-60.8-51-1.1-11.5Zm19.9,55.3c.07,1.47,.63,2.67,1.7,3.6,1.07,.93,2.33,1.4,3.8,1.4h1.6v1h-7.3v-6h.2Zm22-48c0-1.47-.52-2.67-1.55-3.6-1.03-.93-2.32-1.4-3.85-1.4h-1.7v-1h7.4v6h-.3Zm19.7-6V62.2c0,2.4,.1,4.42,.3,6.05,.2,1.63,.5,3.25,.9,4.85h-.9l-19.9-22.8-.1-38.4h19.7Zm-.2,6v-6h7.4v1h-1.7c-1.47,0-2.73,.47-3.8,1.4-1.07,.93-1.63,2.13-1.7,3.6h-.2Z"/>
      <path class="cls-1" d="M294.1,18.1h-.2c-.07-1.53-.6-2.8-1.6-3.8s-2.23-1.5-3.7-1.5h-1.1v-1h6.6v6.3Zm0,47.6v6.2h-6.5v-1h1c1.47,0,2.7-.5,3.7-1.5s1.53-2.23,1.6-3.7h.2Zm19.4-53.9v60.1h-19.6V11.8h19.6Zm-.3,6.3v-6.3h6.6v1h-1c-1.47,0-2.72,.5-3.75,1.5-1.03,1-1.55,2.27-1.55,3.8h-.3Zm0,47.6h.3c0,1.47,.52,2.7,1.55,3.7,1.03,1,2.28,1.5,3.75,1.5h1v1h-6.6v-6.2Zm34.4-53.2l-25.1,31.5-6.5,1,22.9-32.5h8.7Zm-17.6,18.9l20,32.7c1.4,2.27,2.85,3.98,4.35,5.15,1.5,1.17,3.08,1.79,4.75,1.85v.8h-10.3c-.6,0-1.78-.02-3.55-.05-1.77-.03-3.83-.3-6.2-.8-2.37-.5-4.75-1.38-7.15-2.65-2.4-1.27-4.47-3.1-6.2-5.5-.53-.73-1.13-1.67-1.8-2.8-.67-1.13-1.37-2.37-2.1-3.7-.73-1.33-1.43-2.65-2.1-3.95-.67-1.3-1.28-2.52-1.85-3.65-.57-1.13-1.02-2.03-1.35-2.7-.33-.67-.5-1.03-.5-1.1l14-13.6Zm23.6-19.6v.9h-.4c-1.87,0-3.58,.38-5.15,1.15-1.57,.77-2.88,1.78-3.95,3.05l-8.2-.2c.73-1,.88-1.92,.45-2.75-.43-.83-1.22-1.25-2.35-1.25h-.8v-.9h20.4Z"/>
      <path class="cls-1" d="M407,18l-21.2-.3c-.87-1.33-2.07-2.47-3.6-3.4s-3.2-1.4-5-1.4h-1.2v-1h35v1h-1c-1.27,0-2.25,.55-2.95,1.65-.7,1.1-.72,2.25-.05,3.45Zm-3.6-6l19.1,32.3-19.3,.2-21.2-32.5h21.4Zm-.2,53.7v6.2h-6.9v-1h1.2c1.47,0,2.73-.5,3.8-1.5,1.07-1,1.6-2.23,1.6-3.7h.3Zm19.3-21.9v28.1h-19.6v-27.8l19.6-.3Zm12.5-31.8h8l-21.7,33.8-5.4-.8,19.1-33Zm-12.7,53.7h.2c.07,1.47,.63,2.7,1.7,3.7,1.07,1,2.33,1.5,3.8,1.5h1.1v1h-6.8v-6.2Zm9.2-47.7c.73-1.2,.72-2.35-.05-3.45-.77-1.1-1.75-1.65-2.95-1.65h-1.1v-1h21.8v1h-1.3c-1.8,0-3.45,.47-4.95,1.4s-2.72,2.07-3.65,3.4l-7.8,.3Z"/>
      <path class="cls-1" d="M479.7,10.7c5.73,0,10.85,.7,15.35,2.1,4.5,1.4,8.33,3.43,11.5,6.1,3.17,2.67,5.57,5.93,7.2,9.8,1.63,3.87,2.45,8.3,2.45,13.3s-.82,9.32-2.45,13.15c-1.63,3.83-4.03,7.08-7.2,9.75-3.17,2.67-7,4.7-11.5,6.1-4.5,1.4-9.62,2.1-15.35,2.1s-10.75-.7-15.25-2.1c-4.5-1.4-8.33-3.43-11.5-6.1-3.17-2.67-5.57-5.92-7.2-9.75-1.63-3.83-2.45-8.22-2.45-13.15s.82-9.43,2.45-13.3c1.63-3.87,4.03-7.13,7.2-9.8,3.17-2.67,7-4.7,11.5-6.1,4.5-1.4,9.58-2.1,15.25-2.1Zm0,57.9c3.53,0,6.48-1.05,8.85-3.15,2.37-2.1,4.15-5.13,5.35-9.1,1.2-3.97,1.8-8.75,1.8-14.35s-.6-10.5-1.8-14.5c-1.2-4-2.98-7.05-5.35-9.15-2.37-2.1-5.32-3.15-8.85-3.15s-6.38,1.05-8.75,3.15c-2.37,2.1-4.17,5.15-5.4,9.15-1.23,4-1.85,8.83-1.85,14.5s.62,10.38,1.85,14.35c1.23,3.97,3.03,7,5.4,9.1,2.37,2.1,5.28,3.15,8.75,3.15Z"/>
      <path class="cls-1" d="M526.5,11.9v5.1h-.2c0-1.27-.43-2.3-1.3-3.1-.87-.8-1.9-1.2-3.1-1.2h-1.3v-.8h5.9Zm19.4,0V49.6c0,5.87,1.28,10.45,3.85,13.75,2.57,3.3,6.15,4.95,10.75,4.95s8.03-1.55,10.5-4.65c2.47-3.1,3.73-7.42,3.8-12.95V11.9h7.9V49.6c0,7.33-2.17,13.08-6.5,17.25-4.33,4.17-10.6,6.25-18.8,6.25-10.87,0-18.77-2.07-23.7-6.2-4.93-4.13-7.4-9.83-7.4-17.1V11.9h19.6Zm5.7,0v.8h-1.4c-1.2,0-2.22,.4-3.05,1.2-.83,.8-1.25,1.83-1.25,3.1h-.2v-5.1h5.9Zm23.4,0v5.1h-.2c-.07-1.27-.52-2.3-1.35-3.1-.83-.8-1.85-1.2-3.05-1.2h-1.3v-.8h5.9Zm13.4,0v.8h-1.3c-1.2,0-2.23,.4-3.1,1.2-.87,.8-1.3,1.83-1.3,3.1h-.2v-5.1h5.9Z"/>
      <path class="cls-1" d="M19.1,118.73h-.87c0-4.43-1.5-8.1-4.48-11-2.99-2.89-6.51-4.34-10.56-4.34H0v-2.89H18.81l.29,18.23Zm0,137.45l-.29,17.94H0v-2.89H3.18c4.05,0,7.57-1.45,10.56-4.34,2.99-2.89,4.48-6.46,4.48-10.71h.87ZM74.95,100.5v173.62H18.23V100.5h56.72Zm66.55,0v13.31H74.37v-13.31h67.13Zm-12.73,81.31v13.6h-54.4v-13.6h54.4Zm-54.4,74.37h.58c.19,4.25,1.74,7.81,4.63,10.71s6.46,4.34,10.71,4.34h3.18l-.29,2.89h-18.52l-.29-17.94Zm54.4-104.75v30.96h-31.83v-.58c8.68-.19,15.67-3.08,20.98-8.68,5.3-5.59,7.96-12.63,7.96-21.12v-.58h2.89Zm0,43.41v31.25h-2.89v-1.16c0-8.49-2.65-15.48-7.96-20.98-5.31-5.5-12.3-8.34-20.98-8.54v-.58h31.83Zm12.73-81.89v38.49h-2.89v-1.74c0-11.18-2.94-19.92-8.83-26.19-5.89-6.27-14.42-9.5-25.61-9.7v-.87h37.33Zm0-16.78v6.95l-28.65-2.61c3.47,0,7.13-.24,11-.72,3.86-.48,7.42-1.06,10.71-1.74,3.28-.68,5.59-1.3,6.94-1.88Z"/>
      <path class="cls-1" d="M264.77,97.03c16.59,0,31.4,2.03,44.42,6.08,13.02,4.05,24.11,9.94,33.28,17.65,9.16,7.72,16.1,17.17,20.84,28.36,4.72,11.19,7.09,24.02,7.09,38.49s-2.36,26.96-7.09,38.05c-4.73,11.09-11.68,20.5-20.84,28.21-9.16,7.72-20.26,13.6-33.28,17.65-13.02,4.05-27.83,6.08-44.42,6.08s-31.11-2.03-44.13-6.08c-13.02-4.05-24.12-9.93-33.28-17.65-9.16-7.71-16.11-17.12-20.83-28.21-4.73-11.09-7.09-23.77-7.09-38.05s2.36-27.29,7.09-38.49c4.72-11.18,11.67-20.64,20.83-28.36,9.16-7.71,20.26-13.6,33.28-17.65,13.02-4.05,27.73-6.08,44.13-6.08Zm0,167.55c10.22,0,18.76-3.04,25.61-9.12,6.85-6.08,12.01-14.85,15.48-26.33,3.47-11.48,5.21-25.32,5.21-41.53s-1.74-30.38-5.21-41.96c-3.47-11.57-8.64-20.4-15.48-26.48-6.85-6.08-15.39-9.12-25.61-9.12s-18.47,3.04-25.32,9.12c-6.85,6.08-12.06,14.9-15.63,26.48-3.57,11.57-5.35,25.57-5.35,41.96s1.78,30.05,5.35,41.53c3.57,11.48,8.78,20.26,15.63,26.33,6.85,6.08,15.29,9.12,25.32,9.12Z"/>
      <path class="cls-1" d="M402.79,118.44h-.87c0-4.44-1.45-8.05-4.34-10.85-2.89-2.79-6.27-4.2-10.13-4.2h-3.47v-2.89h18.52l.29,17.94Zm0,137.74l-.29,17.94h-18.52v-2.89h3.18c3.86,0,7.28-1.45,10.27-4.34,2.99-2.89,4.48-6.46,4.48-10.71h.87Zm56.14-155.68v173.62h-57.01V100.5h57.01Zm24.6,0c7.33,0,14.85,.63,22.57,1.88,7.71,1.25,14.85,3.52,21.41,6.8,6.56,3.28,11.86,8.06,15.92,14.32,4.05,6.27,6.08,14.52,6.08,24.74,0,5.79-1.01,11.96-3.04,18.52-2.03,6.56-5.69,12.4-11,17.51-5.31,5.11-12.98,8.54-23,10.27,7.33,1.93,13.79,5.6,19.39,11,5.59,5.4,9.64,10.32,12.15,14.76,1.35,2.31,2.84,5.16,4.48,8.53,1.64,3.38,3.62,7.09,5.93,11.14,2.31,4.05,4.92,8.39,7.81,13.02,3.66,5.6,6.85,9.69,9.55,12.3,2.7,2.6,5.3,4.24,7.81,4.92,2.51,.68,5.3,1.01,8.39,1.01v2.89h-34.15c-10.23,0-19.1-.44-26.62-1.3-7.52-.87-14.23-3.37-20.11-7.52-5.89-4.15-11.62-10.95-17.22-20.4-2.13-3.66-3.91-7.09-5.35-10.27-1.45-3.18-2.65-6.32-3.62-9.4-.97-3.08-1.79-6.26-2.46-9.55-.68-3.28-1.4-6.65-2.17-10.13-1.35-6.75-3.09-11.14-5.21-13.17-2.13-2.03-3.57-3.13-4.34-3.33v-2.31h1.45c3.08,0,6.17-.96,9.26-2.89,3.08-1.92,5.79-5.16,8.1-9.69,2.32-4.53,3.86-10.85,4.63-18.95,0-.58,.09-1.64,.29-3.18,.19-1.54,.19-3.57,0-6.08-.39-8.29-1.84-14.61-4.34-18.95-2.51-4.34-5.35-7.38-8.54-9.12-3.18-1.74-6.03-2.75-8.54-3.04-2.51-.29-3.96-.44-4.34-.44h-6.08c-.19,0-.43-1.16-.72-3.47-.29-2.31-.72-5.79-1.3-10.42h26.91Zm-25.18,155.68h.58c0,5.02,1.74,8.78,5.21,11.29,3.47,2.51,6.85,3.76,10.13,3.76h2.6v2.89h-18.23l-.29-17.94Z"/>
      <path class="cls-1" d="M32.26,312.74H9.15c-.82-2.16-2.05-3.67-3.68-4.52-1.64-.85-3.2-1.28-4.69-1.28H0v-1.12H36.73v1.12h-1.01c-1.19,0-2.25,.49-3.18,1.45-.93,.97-1.02,2.42-.28,4.35Zm-25.45-6.25H29.58l13.06,29.92-9.6,37.51L6.81,306.48Zm52.47-2.12l2.79,11.05-25.45,48c-.89,2.01-1.56,3.82-2.01,5.41-.45,1.6-.67,3.29-.67,5.08h-.89l-3.57-13.95,29.02-55.59h.78Zm0,0l22.21,37.17-6.92,32.37-24.89-42.08,9.6-27.46Zm35.61,2.12l-18.2,56.93c-.6,2.16-1,4.06-1.23,5.69-.22,1.64-.22,3.24,0,4.8h-.89l-4.24-9.38,16.86-58.05h7.7Zm-9.49,6.14c.45-1.93,.26-3.37-.56-4.3-.82-.93-1.9-1.4-3.24-1.4h-.78v-1.12h21.32v1.12h-.78c-1.41,0-3.01,.43-4.8,1.28-1.79,.86-3.01,2.36-3.68,4.52l-7.48-.11Z"/>
      <path class="cls-1" d="M103.93,365.98c-.82,1.86-.71,3.27,.34,4.24,1.04,.97,2.19,1.45,3.46,1.45h.78v1.12h-23v-1.12h.89c1.49,0,3.05-.43,4.69-1.28,1.64-.85,2.94-2.32,3.91-4.41h8.93Zm20.65-64.19l-.11,17.08-23.44,53.58h-9.04l25.9-55.81c.3-.74,.74-1.77,1.34-3.07,.59-1.3,1.21-2.72,1.84-4.24,.63-1.53,1.21-2.96,1.73-4.3,.52-1.34,.82-2.42,.89-3.24h.89Zm7.48,51.8v5.02h-27.8v-5.02h27.8Zm-7.48-51.8l34.61,70.44h-25.34l-18.87-43.09,9.6-27.35Zm6.47,64.19h25c1.04,2.08,2.38,3.55,4.02,4.41,1.64,.86,3.2,1.28,4.69,1.28h.89v1.12h-39.29v-1.12h.89c1.26,0,2.42-.48,3.46-1.45,1.04-.97,1.15-2.38,.34-4.24Z"/>
      <path class="cls-1" d="M155.95,304.03c.59,.22,1.52,.47,2.79,.72,1.26,.26,2.66,.49,4.19,.67,1.52,.19,2.96,.28,4.3,.28l-11.27,1.12v-2.79Zm66.87,1.67v5.25h-66.87v-5.25h66.87Zm-52.58,4.8v.45c-4.24,.08-7.5,1.28-9.77,3.63-2.27,2.34-3.4,5.64-3.4,9.88v.56h-1.12v-14.51h14.29Zm8.37,55.37v6.92h-7.14v-1.12h1.12c1.64,0,2.99-.56,4.07-1.67,1.08-1.12,1.66-2.49,1.73-4.13h.22Zm21.77-59.72v66.64h-21.99v-66.64h21.99Zm-.45,59.72h.45c-.08,1.64,.46,3.01,1.62,4.13,1.15,1.12,2.55,1.67,4.19,1.67h1.12v1.12h-7.37v-6.92Zm22.88-55.37v14.51h-1.12v-.56c.07-4.24-1.04-7.53-3.35-9.88-2.31-2.34-5.58-3.55-9.82-3.63v-.45h14.29Zm0-6.47v2.79l-11.27-1.12c1.34,0,2.81-.09,4.41-.28,1.6-.19,3.05-.41,4.35-.67,1.3-.26,2.14-.5,2.51-.72Z"/>
      <path class="cls-1" d="M292.58,344.88l2.9,17.86c-1.12,2.01-2.75,3.87-4.91,5.58-2.16,1.71-4.97,3.11-8.43,4.19-3.46,1.08-7.76,1.62-12.89,1.62-8.78-.08-16.35-1.45-22.72-4.13-6.36-2.68-11.26-6.6-14.68-11.78-3.42-5.17-5.14-11.52-5.14-19.03s1.67-13.53,5.02-18.7c3.35-5.17,8.2-9.14,14.57-11.89,6.36-2.75,14.01-4.13,22.94-4.13,5.36,0,10.12,.41,14.29,1.23,4.17,.82,7.52,1.75,10.05,2.79l-1.45,18.98h-.78c-2.01-6.85-4.73-11.55-8.15-14.12-3.42-2.57-7.44-3.85-12.06-3.85-5.06,0-9.19,1.25-12.39,3.74-3.2,2.49-5.54,5.95-7.03,10.38-1.49,4.43-2.23,9.51-2.23,15.24,0,6.03,.76,11.28,2.29,15.74,1.52,4.47,3.76,7.94,6.7,10.44,2.94,2.49,6.53,3.85,10.77,4.07,5.14,0,9.1-.76,11.89-2.29,2.79-1.53,4.95-4.06,6.47-7.59,1.52-3.53,2.92-8.32,4.19-14.34h.78Z"/>
      <path class="cls-1" d="M308.43,312.74h-.34c0-1.71-.58-3.11-1.73-4.19-1.15-1.08-2.51-1.62-4.07-1.62h-1.23v-1.12h7.37v6.92Zm0,53.14v6.92h-7.37v-1.12h1.23c1.56,0,2.92-.56,4.07-1.67,1.15-1.12,1.73-2.49,1.73-4.13h.34Zm21.54-60.06v66.98h-21.88v-66.98h21.88Zm22.55,30.81v5.14h-23.44v-5.14h23.44Zm-22.77-23.89v-6.92h7.26v1.12h-1.12c-1.64,0-3.01,.54-4.13,1.62-1.12,1.08-1.71,2.47-1.79,4.19h-.22Zm0,53.14h.22c.07,1.64,.67,3.01,1.79,4.13s2.49,1.67,4.13,1.67h1.12v1.12h-7.26v-6.92Zm22.21-53.14h-.22c-.08-1.71-.67-3.11-1.79-4.19-1.12-1.08-2.49-1.62-4.13-1.62h-1.12v-1.12h7.26v6.92Zm0,53.14v6.92h-7.26v-1.12h1.12c1.64,0,3.01-.56,4.13-1.67s1.71-2.49,1.79-4.13h.22Zm21.54-60.06v66.98h-21.77v-66.98h21.77Zm-.33,60.06h.33c0,1.64,.56,3.01,1.67,4.13s2.49,1.67,4.13,1.67h1.23v1.12h-7.37v-6.92Zm.11-53.14v-6.92h7.37v1.12h-1.23c-1.64,0-3.01,.54-4.13,1.62-1.12,1.08-1.67,2.47-1.67,4.19h-.34Z"/>
      <path class="cls-1" d="M391.37,312.74h-.34c0-1.71-.58-3.11-1.73-4.19-1.15-1.08-2.48-1.62-3.96-1.62h-1.23v-1.12h7.26v6.92Zm0,53.14v6.92h-7.26v-1.12h1.23c1.49,0,2.81-.56,3.96-1.67,1.15-1.12,1.73-2.49,1.73-4.13h.34Zm21.54-60.06v66.98h-21.88v-66.98h21.88Zm-.22,6.92v-6.92h7.14v1.12h-1.12c-1.56,0-2.9,.54-4.02,1.62-1.12,1.08-1.71,2.47-1.79,4.19h-.22Zm0,53.14h.22c.07,1.64,.67,3.01,1.79,4.13s2.46,1.67,4.02,1.67h1.23v1.12h-7.26v-6.92Z"/>
      <path class="cls-1" d="M431.89,366.09v6.7h-8.26v-1.12h1.79c1.71,0,3.16-.52,4.35-1.56,1.19-1.04,1.79-2.38,1.79-4.02h.34Zm-.67-61.73l22.21,23.55v44.88h-21.88v-56.6c0-3.79-.45-7.74-1.34-11.83h1Zm0,0l67.87,57.15,1.23,12.61-67.87-56.93-1.23-12.84Zm22.21,61.73c.07,1.64,.71,2.98,1.9,4.02,1.19,1.04,2.6,1.56,4.24,1.56h1.79v1.12h-8.15v-6.7h.22Zm24.56-53.58c0-1.64-.58-2.98-1.73-4.02-1.15-1.04-2.59-1.56-4.3-1.56h-1.9v-1.12h8.26v6.7h-.34Zm21.99-6.7v56.15c0,2.68,.11,4.93,.33,6.75,.22,1.82,.56,3.63,1,5.41h-1l-22.21-25.45-.11-42.87h21.99Zm-.22,6.7v-6.7h8.26v1.12h-1.9c-1.64,0-3.05,.52-4.24,1.56-1.19,1.04-1.82,2.38-1.9,4.02h-.22Z"/>
      <path class="cls-1" d="M548.88,304.47c3.42,0,7.01,.19,10.77,.56,3.76,.37,7.24,.86,10.44,1.45,3.2,.6,5.69,1.27,7.48,2.01l-1.56,18.98h-.78c-1.34-4.99-3.16-8.76-5.47-11.33-2.31-2.57-4.78-4.31-7.42-5.25-2.64-.93-5.23-1.4-7.76-1.4-4.91,0-8.91,1.19-12,3.57-3.09,2.38-5.36,5.86-6.81,10.44-1.45,4.58-2.18,10.14-2.18,16.69,0,5.96,.58,11.09,1.73,15.4,1.15,4.32,2.96,7.65,5.41,9.99,2.46,2.34,5.62,3.52,9.49,3.52,1.86,0,3.65-.41,5.36-1.23,1.71-.82,3.05-2.01,4.02-3.57,.97-1.56,1.26-3.5,.89-5.8l.11-12.5c0-1.49-.41-2.6-1.23-3.35-.82-.74-1.97-1.12-3.46-1.12h-1.56v-.89h34.05v.89h-1.34c-3.28,0-4.84,1.49-4.69,4.47l-.11,15.85c-1.41,1.94-3.85,3.85-7.31,5.75-3.46,1.9-7.53,3.46-12.22,4.69-4.69,1.23-9.67,1.84-14.96,1.84-7.44,0-13.94-1.4-19.48-4.19-5.54-2.79-9.84-6.79-12.89-12-3.05-5.21-4.58-11.5-4.58-18.87s1.51-13.41,4.52-18.59c3.01-5.17,7.35-9.14,13-11.89,5.65-2.75,12.5-4.13,20.54-4.13Z"/>
    </g>
  </g>
</svg>